<svg height="60" viewBox="0 0 60 60" width="60" xmlns="http://www.w3.org/2000/svg" xmlns:xlink="http://www.w3.org/1999/xlink">
	<mask id="a" fill="#fff">
		<path d="m.06.077v38.863h39.937v-38.863z" fill="#fff" fill-rule="evenodd"/>
	</mask>

	<g fill="none" fill-rule="evenodd" transform="matrix(.91421606 0 0 .91421606 0 -.33826)">
		<path d="m20.816 39c-9.974707.204174-19.2462678-7.771396-20.57571417-17.650914-1.38710483-8.323437 2.91313927-17.1959321 10.30071417-21.272086 1.197 2.105 2.394 4.21 3.591 6.315-6.4962626 3.481575-8.9327899 12.595242-4.9021495 18.812625 3.6863815 6.480198 12.9872175 8.544226 19.0798995 4.276875 2.579795-1.049424 3.789605-4.897367 5.509149-5.807566l6.178101 2.613066c-3.122374 7.605798-10.955972 12.801195-19.181 12.713z" fill="#d40d47" mask="url(#a)" transform="translate(0 27)"/>
		<path d="m39.997 53.287c-2.231-.943333-4.462-1.886667-6.693-2.83 3.105345-6.820524-.740885-15.612469-7.832999-18.001382-3.675533-1.367235-7.937834-1.013318-11.339001.936382-1.197-2.105-2.394-4.21-3.591-6.315 8.456163-5.028623 20.232875-2.82829 26.333217 4.872715 4.907554 5.827506 6.143914 14.345858 3.122783 21.337285z" fill="#fabb2e"/>
		<path d="m37.779 7.635c-9.864417-.201929-19.034276 7.6847-20.349364 17.45519-1.670691 9.579117 4.505852 19.680661 13.753435 22.63347 9.005313 3.240189 19.839297-.889919 24.450541-9.263538 4.93125-8.21205 2.971446-19.675728-4.39006-25.798997-3.692663-3.222747-8.561592-5.0473382-13.464552-5.026125zm-27.852 20.586c-.215239-12.371321 8.889657-24.0634723 20.899439-26.9726515 11.560094-3.1773458 24.704675 2.2133605 30.765736 12.5418565 6.53465 10.362953 4.946492 24.921668-3.661668 33.637653-8.293534 9.012661-22.750028 11.301687-33.416685 5.278675-8.854055-4.730108-14.6858149-14.429192-14.586822-24.485533z" fill="#2aabce"/>
		<path d="m37.779 56.073c-12.371557.215341-24.064382-8.889277-26.973648-20.899439-.9816511-3.595742-2.3809822-11.009496 3.486652-10.510776 4.379915 1.1951 2.231288 6.522575 3.827079 9.673425 2.501007 8.415928 10.868743 14.611558 19.659917 14.47079 4.752122-.0047 4.775421 7.249123 0 7.266z" fill="#555390"/>
	</g>
</svg>
