<svg height="250" viewBox="0 0 300 250" width="300" xmlns="http://www.w3.org/2000/svg" xmlns:xlink="http://www.w3.org/1999/xlink">
	<mask id="a" fill="#fff">
		<path d="m.06.077v38.863h39.937v-38.863z" fill="#fff" fill-rule="evenodd"/>
	</mask>
	<mask id="b" fill="#fff">
		<path d="m.212365 52.94h87.561635v-52.624h-87.561635z" fill="#fff" fill-rule="evenodd"/>
	</mask>

	<g fill-rule="evenodd" transform="translate(0 -102.28022)">
		<path d="m20.816 39c-11.478 0-20.816-9.338-20.816-20.817 0-7.473 4.039-14.411 10.541-18.106l3.591 6.315c-4.236 2.408-6.867 6.926-6.867 11.791 0 7.472 6.08 13.552 13.551 13.552 5.459 0 10.361-3.25 12.49-8.278l6.691 2.83c-3.268 7.723-10.797 12.713-19.181 12.713" fill="#d40d47" mask="url(#a)" transform="matrix(.6923596 0 0 .6923596 0 222.99798)"/>
		<path d="m27.692306 241.19803-4.633963-1.95938c.488806-1.15554.736671-2.38448.736671-3.6515 0-5.17331-4.208854-9.38216-9.382857-9.38216-1.62566 0-3.225704.42164-4.6277313 1.21855l-2.4862634-4.37225c2.1580849-1.22756 4.6187307-1.8763 7.1139947-1.8763 7.947595 0 14.413542 6.46526 14.413542 14.41216 0 1.94415-.38149 3.83221-1.133393 5.61088" fill="#fabb2e" stroke-width=".69236"/>
		<path d="m26.156653 209.59043c-7.859666 0-14.253607 6.39394-14.253607 14.25292 0 7.85966 6.393941 14.25291 14.253607 14.25291 7.858973 0 14.252914-6.39325 14.252914-14.25291 0-7.85898-6.393941-14.25292-14.252914-14.25292zm-19.2835998 14.25292c0-10.63257 8.6503408-19.28291 19.2835998-19.28291 10.632565 0 19.282906 8.65034 19.282906 19.28291 0 10.63326-8.650341 19.2836-19.282906 19.2836-10.633259 0-19.2835998-8.65034-19.2835998-19.2836z" fill="#2aabce" stroke-width=".69236"/>
		<path d="m26.156653 243.12695c-10.633259 0-19.2835998-8.65034-19.2835998-19.2836 0-1.38888 1.1257768-2.51465 2.5153424-2.51465 1.3888734 0 2.5146504 1.12577 2.5146504 2.51465 0 7.85966 6.393941 14.25291 14.253607 14.25291 1.388873 0 2.51465 1.12647 2.51465 2.51534 0 1.38888-1.125777 2.51535-2.51465 2.51535" fill="#555390" stroke-width=".69236"/>

		<g fill="#d40d47">
			<g transform="matrix(.6923596 0 0 .6923596 207.70787 213.30494)">
				<path d="m67.483 30.105c-5.246 0-9.499-4.252-9.499-9.498s4.253-9.498 9.499-9.498c5.245 0 9.498 4.252 9.498 9.498s-4.253 9.498-9.498 9.498zm0-29.789c-11.207 0-20.291 9.085-20.291 20.291 0 11.207 9.084 20.291 20.291 20.291 11.206 0 20.291-9.084 20.291-20.291 0-11.206-9.085-20.291-20.291-20.291z" mask="url(#b)"/>
				<path d="m41.952 1.284h-7.729c-1.159 0-1.834.095-2.32 1.061l-9.661 21.837h-.096l-9.759-21.837c-.292-.579-.774-1.061-1.644-1.061h-8.696c-1.447 0-2.221 1.255-1.641 2.511l15.747 33.432-5.723 13.163c-.676 1.353.194 2.61 1.644 2.61h8.309c.771 0 1.352-.581 1.644-1.16l21.568-48.045c.676-1.256-.095-2.511-1.643-2.511" mask="url(#b)"/>
			</g>

			<path d="m187.7963 224.22761c.3358-2.54166 2.54373-4.54881 5.21901-4.54881 2.54165 0 4.68105 2.07362 4.88321 4.54881zm5.4191-10.70388c-7.96144 0-13.64641 6.48879-13.64641 14.04936 0 7.69281 5.68497 14.04797 13.71219 14.04797 4.21647 0 7.27392-1.23932 9.45762-3.10731.56151-.4798.65498-1.31479.23264-1.92129l-1.91438-2.7459c-.41887-.60028-1.2137-.7796-1.86382-.44311-1.60766.8336-3.46665 1.32794-5.95776 1.32794-3.88137 0-5.83936-1.92268-6.04153-4.66512h17.12621c.60166 0 1.20332-.46803 1.27117-1.13823.0665-.46804.13432-1.33764.13432-1.80568 0-7.22477-4.45118-13.59863-12.51025-13.59863z" stroke-width=".69236"/>
			<path d="m96.228289 213.52373c-4.814672 0-8.294469 2.94391-9.432705 4.14862-2.207245-2.67667-4.883216-4.14862-8.696733-4.14862-3.942295 0-6.733196 1.84444-8.216925 3.19801-.454878-.70967-1.005996-1.75444-1.005996-1.75444-.243708-.38565-.594042-.77337-1.196394-.77337h-3.092773c-.670207 0-1.271863.5345-1.271863 1.27048v24.21735c0 .66882.601656 1.27048 1.271863 1.27048h5.417023c.670201 0 1.271863-.60166 1.271863-1.27048v-14.71817c.670206-1.80637 2.275789-4.21509 5.619188-4.21509 3.411949 0 4.951759 2.20793 4.951759 5.68635v13.24691c0 .66882.533808 1.27048 1.269787 1.27048h5.017531c.66951 0 1.271863-.60166 1.271863-1.27048v-13.58063c0-1.2047-.06854-2.54304-.06854-2.54304s1.739898-2.80959 5.621959-2.80959c3.343405 0 5.016836 2.20793 5.016836 5.68635v13.24691c0 .66882.533808 1.27048 1.269788 1.27048h5.41979c.73598 0 1.26979-.60166 1.26979-1.27048v-12.77749c0-7.02399-3.14401-13.38054-11.707107-13.38054" stroke-width=".69236"/>
			<path d="m298.72823 214.19393h-5.0833c-1.07247 0-1.47196.26656-1.47196 1.27048v13.91435c-.40226 2.40872-2.54165 5.01753-5.35332 5.01753-3.07547 0-4.88391-2.20793-4.88391-5.75351v-13.17837c0-.73598-.60166-1.27048-1.26909-1.27048h-5.48557c-.6702 0-1.27186.5345-1.27186 1.27048v12.97828c0 6.82321 3.00968 13.17837 11.30692 13.17837 4.3861 0 6.82044-1.92683 8.21554-3.19731l.0006.0235c.45488.70967 1.00669 1.75374 1.00669 1.75374.24302.38634.59404.77406 1.1957.77406h3.09347c.66951 0 1.27186-.53519 1.27186-1.27117v-24.23951c0-.73598-.60235-1.27048-1.27186-1.27048" stroke-width=".69236"/>
			<path d="m162.23024 213.52373c-4.30579 0-7.28086 2.00022-8.73412 3.28524l-.0187-.0872c-.45488-.70966-1.00669-1.75443-1.00669-1.75443-.24233-.38565-.59335-.77337-1.1957-.77337h-3.09278c-.6702 0-1.27186.5345-1.27186 1.27048v24.21735c0 .66882.60166 1.27048 1.27186 1.27048h5.41703c.6702 0 1.27186-.60166 1.27186-1.27048v-14.86288c.72421-1.78767 2.83383-4.07038 6.22155-4.07038 3.21115 0 5.01683 2.20793 5.01683 5.68635v13.24691c0 .66882.53658 1.27048 1.27186 1.27048h5.48557c.6702 0 1.27186-.60166 1.27186-1.27048v-12.84465c0-6.95683-3.41125-13.31338-11.90858-13.31338" stroke-width=".69236"/>
			<path d="m127.41909 234.14843c-3.63212 0-6.57603-2.94392-6.57603-6.57603 0-3.63212 2.94391-6.57604 6.57603-6.57604s6.57672 2.94392 6.57672 6.57604c0 3.63211-2.9446 6.57603-6.57672 6.57603zm0-20.6247c-7.75859 0-14.04867 6.29008-14.04867 14.04867 0 7.75927 6.29008 14.04866 14.04867 14.04866 7.75927 0 14.04867-6.28939 14.04867-14.04866 0-7.75859-6.2894-14.04867-14.04867-14.04867z" stroke-width=".69236"/>
		</g>
	</g>
</svg>
